<?xml version="1.0" standalone="no"?>
<!DOCTYPE svg PUBLIC "-//W3C//DTD SVG 20010904//EN"
 "http://www.w3.org/TR/2001/REC-SVG-20010904/DTD/svg10.dtd">
<svg version="1.0" xmlns="http://www.w3.org/2000/svg"
 width="569.000000pt" height="569.000000pt" viewBox="0 0 569.000000 569.000000"
 preserveAspectRatio="xMidYMid meet">
<metadata>
Created by potrace 1.14, written by Peter Selinger 2001-2017
</metadata>
<g transform="translate(0.000000,569.000000) scale(0.100000,-0.100000)"
fill="#000000" stroke="none">
<path d="M2600 5683 c-19 -2 -97 -12 -172 -24 -1151 -169 -2091 -1077 -2323
-2244 -43 -217 -50 -298 -50 -560 0 -194 7 -338 19 -400 2 -11 7 -42 10 -70
31 -236 141 -576 268 -829 103 -207 276 -466 408 -612 441 -485 998 -800 1600
-903 184 -32 193 -32 445 -36 274 -3 376 6 635 59 198 41 454 135 668 246 739
384 1273 1084 1456 1911 54 245 69 420 62 694 -6 236 -6 240 -37 420 -151 896
-722 1669 -1528 2070 -209 104 -487 200 -671 231 -14 3 -48 9 -76 15 -120 24
-292 37 -479 36 -110 -1 -216 -2 -235 -4z"/>
</g>
</svg>
