<?xml version="1.0" standalone="no"?>
<!DOCTYPE svg PUBLIC "-//W3C//DTD SVG 20010904//EN"
 "http://www.w3.org/TR/2001/REC-SVG-20010904/DTD/svg10.dtd">
<svg version="1.0" xmlns="http://www.w3.org/2000/svg"
 width="700.000000pt" height="700.000000pt" viewBox="0 0 700.000000 700.000000"
 preserveAspectRatio="xMidYMid meet">
<metadata>
Created by potrace 1.14, written by Peter Selinger 2001-2017
</metadata>
<g transform="translate(0.000000,700.000000) scale(0.100000,-0.100000)"
fill="#000000" stroke="none">
<path d="M3498 6418 l-3 -293 -280 0 c-154 0 -284 -3 -290 -7 -6 -4 -10 -111
-9 -290 l0 -283 275 -2 c150 -1 282 -2 292 -2 16 -1 17 -50 17 -876 l0 -875
1165 2 c771 2 1165 0 1166 -7 1 -16 1 -496 0 -537 l-1 -38 -290 0 -290 0 0
-293 0 -292 288 0 c269 0 287 1 292 18 3 10 5 142 4 293 l-1 274 292 0 291 0
-1 578 c-1 317 -3 579 -3 582 -1 3 -524 5 -1162 5 -1024 0 -1161 2 -1164 15
-2 8 -3 528 -2 1155 1 627 0 1146 -2 1153 -3 9 -71 12 -293 12 l-289 0 -2
-292z"/>
<path d="M2404 5542 l-71 -3 0 -285 c0 -157 4 -287 8 -290 7 -4 465 -8 555 -5
20 1 21 4 21 291 l0 290 -36 1 c-174 3 -419 3 -477 1z"/>
<path d="M1750 4666 l0 -291 -290 0 c-253 0 -290 -2 -291 -15 -1 -8 -2 -134
-3 -280 -2 -146 -4 -271 -4 -277 -2 -10 -71 -13 -289 -15 l-288 -3 0 -580 0
-580 1166 0 1165 0 -1 -1155 c0 -635 1 -1161 3 -1167 3 -10 71 -13 293 -13
l289 0 2 293 3 292 290 0 289 0 1 290 0 290 205 2 c113 1 244 2 291 2 l86 1 0
290 c0 201 -4 290 -11 291 -13 0 -545 0 -562 0 -8 -1 -11 -87 -11 -288 l1
-288 -292 -3 -292 -2 0 875 0 875 -1167 0 -1168 0 1 288 1 287 291 3 292 2 2
293 3 292 288 0 c158 0 287 2 288 5 0 3 2 134 2 292 l2 287 -292 -1 -293 0 0
-292z"/>
<path d="M4669 2615 c-1 -5 -2 -135 -3 -288 -1 -239 1 -278 14 -282 8 -2 140
-4 293 -3 l277 0 -2 292 -3 291 -287 0 c-187 0 -288 -3 -289 -10z"/>
</g>
</svg>
