<svg version="1.1" xmlns="http://www.w3.org/2000/svg" xmlns:xlink="http://www.w3.org/1999/xlink" x="0px" y="0px"
	 viewBox="0 0 864 864" style="enable-background:new 0 0 864 864;" xml:space="preserve">
<path fill="#A640FF" d="M775.2,344.9L775.2,344.9c0-30.2-0.6-60.4,0.3-90.6c0.3-11-3.7-14.3-14-13.4c-9.5,0.6-18.9,0-28.4,0.3
	c-7,0.3-9.8-2.4-9.5-9.5c0.3-10.1-0.6-19.8,0.3-29.9c0.9-11-2.4-15.9-14-14.6c-9.5,0.9-18.9,0-28.4,0.3c-7,0.3-9.8-2.7-9.5-9.8
	c0.3-9.8-0.3-19.8,0.3-29.9c0.3-8.2-2.4-12.5-11.6-12.5c-44.5,0.3-89.3,0.3-133.9,0c-7,0-9.8,2.7-9.5,9.8c0.3,10.4-0.3,20.7,0,31.1
	c0.3,8.2-2.1,11.6-10.7,11c-10.4-0.6-20.7,0.3-31.1-0.3c-8.2-0.3-11.6,3.4-11.6,11c0,10.7-0.3,21.6,0,32.3
	c0.3,7.6-2.7,10.4-10.4,10.1c-17.7-0.3-35.1,0-52.7-0.3c-12.5,0-29,4-36.6-2.1c-9.5-7.3-3.4-24.4-3-37.2c0.3-11.6-3.7-14.6-14.6-14
	c-11.6,0.6-26.5,5.2-34.1-1.8c-8.5-7.6-3-23.2-2.7-35.1c0.3-10.7-4-14.6-14-14.6c-42.4,0.3-84.8,0.3-127.1,0c-10.4,0-14.3,4-14,14.6
	c0.3,11.6,5.2,26.5-2.1,34.2c-7.9,8.2-23.2,2.7-35.1,2.7c-11.6,0-16.8,3.7-16.2,15.9c0.6,8.5-0.3,17.1,0.3,25.6
	c0.6,9.1-2.1,13.4-11.9,12.5c-9.5-0.9-18.9,0-28.4-0.3c-6.7-0.3-9.8,2.4-9.8,9.5c0,62.8,0,125.3,0,188.1c0,7.6,3.7,9.1,10.1,8.8
	c10.4-0.3,20.7,0,31.1,0c6.4-0.3,8.8,2.4,8.8,8.8c-0.3,9.5,0.6,18.9-0.3,28.4c-0.9,12.2,2.7,18,15.6,16.5c7.9-0.9,16.2,0.3,24.4-0.3
	c8.5-0.6,12.5,2.4,11.9,11.6c-0.6,9.8,0,19.8-0.3,29.9c0,5.5,1.5,7.9,7.3,8.8c9.8,1.2,19.5,2.4,29.6,0.3c9.8-1.8,15.6,1.5,14.6,13.1
	c-0.6,7.9,0.3,16.2-0.3,24.4c-0.9,11.6,2.7,16.8,14.9,15.6c9.8-0.9,19.8,0,29.9-0.3c6.4,0,8.8,2.4,8.8,8.8
	c-0.3,10.7,0.3,21.6-0.3,32.3c-0.3,7.6,2.4,10.7,10.1,10.4c9.1-0.6,18,0.3,27.1-0.3c10.7-0.9,15.9,2.1,14.6,14
	c-0.9,9.5,0,18.9-0.3,28.4c-0.3,6.7,2.1,9.8,9.5,9.5c9.8-0.3,19.8,0.3,29.9-0.3c9.1-0.6,13.1,2.1,12.5,11.9
	c-0.9,9.8,0,19.8-0.3,29.9c-0.3,6.7,1.8,10.1,9.1,10.1c28.4-0.3,56.7-0.3,85.4,0.3c7.6,0,9.1-3.7,8.8-10.1
	c-0.3-10.4,0.3-20.7-0.3-31.1c-0.3-8.5,3-11.3,11-10.7c9.5,0.3,18.9-0.3,28.4,0.3c9.5,0.6,12.8-3.7,12.5-12.8s0.6-18-0.3-27.1
	c-0.9-11,4-14.3,14.3-13.7c8.8,0.6,18,0,27.1,0.3c8.5,0.3,13.4-0.9,11.9-11.9c-1.2-9.1-1.8-18.6-0.3-28.1
	c1.5-9.5,5.8-11.9,14.3-11.6c8.5,0.3,17.1-0.3,25.6,0.3c9.1,0.6,13.1-2.4,12.5-12.2c-0.6-10.4,0-20.7-0.3-31.1
	c0-6.4,2.4-8.8,8.8-8.8c10.4,0.3,20.7-0.3,31.1,0.3c8.5,0.6,12.5-2.4,11.9-11.6c-0.6-9.5,0.3-18.9-0.3-28.4
	c-0.6-8.5,2.1-12.5,11.3-11.9c9.5,0.6,18.9-0.6,28.4,0.3c9.8,0.9,12.5-3.4,12.2-12.5c-0.6-9.5,0.3-18.9-0.3-28.4
	c-0.3-8.2,2.1-11.6,10.7-11c9.8,0.6,19.8-0.3,29.9,0.3c9.1,0.6,11.6-3,11.6-11.6C774.9,405.3,775.2,375.1,775.2,344.9z"/>
</svg>
